Coordinates
version=1
nRows=24
nColumns=24
inDegrees=yes

Units are S.I. units (second, meters, Newtons, ...)
Angles are in degrees.

endheader
time	pelvis_tilt	pelvis_list	pelvis_rotation	pelvis_tx	pelvis_ty	pelvis_tz	hip_flexion_r	hip_adduction_r	hip_rotation_r	knee_angle_r	ankle_angle_r	subtalar_angle_r	mtp_angle_r	hip_flexion_l	hip_adduction_l	hip_rotation_l	knee_angle_l	ankle_angle_l	subtalar_angle_l	mtp_angle_l	lumbar_extension	lumbar_bending	lumbar_rotation
      1.75500000	     13.50532423	     -7.76707539	      2.06991192	     -0.20618691	      0.96147180	     -0.05027167	      4.92067261	      6.35464529	    -14.47604404	    -23.99068286	     12.58231998	    -18.00528528	     22.47762339	    -20.38041021	     -5.00354895	     -9.21943240	     -8.72280980	     24.85027442	     -3.99300885	     10.81933772	    -22.15281760	      8.09578749	      1.18714093
      1.76000000	     13.85526898	     -7.99771186	      2.45248655	     -0.20004073	      0.96116089	     -0.05030998	      4.08226011	      6.75822276	    -15.41542747	    -21.21990056	     12.13068225	    -17.33492280	     22.99416619	    -21.09979430	     -5.40896782	     -9.24248111	     -8.77755330	     25.22236218	     -3.69292893	     10.62518612	    -22.41147286	      8.47052774	      0.98141099
      1.76500000	     14.14758052	     -8.16048278	      2.82397808	     -0.19389639	      0.96069601	     -0.05029648	      3.31449604	      7.11399006	    -16.38872826	    -18.47812384	     11.66095899	    -16.51537285	     23.60992331	    -21.74273521	     -5.75058110	     -9.23692974	     -8.85536649	     25.60508832	     -3.40528938	     10.43555479	    -22.60380044	      8.76911453	      0.74340003
      1.77000000	     14.42555283	     -8.27317498	      3.18666655	     -0.18771677	      0.96012291	     -0.05022610	      2.55578511	      7.44847457	    -17.39368516	    -15.74577028	     11.19376930	    -15.54936277	     24.27502030	    -22.36901072	     -6.04945736	     -9.23774071	     -8.93917691	     25.95177631	     -3.10063659	     10.26868706	    -22.77503467	      9.01058974	      0.50853523
      1.77500000	     14.59266222	     -8.32824471	      3.51970408	     -0.18154573	      0.95933069	     -0.05001700	      1.93435575	      7.75073841	    -18.39172810	    -13.05759214	     10.51497976	    -14.67453051	     26.72278547	    -22.83423183	     -6.30399845	     -9.29195526	     -9.11589472	     26.40609280	     -2.62325966	      9.64384046	    -22.82564637	      9.17157806	      0.25533988
      1.78000000	     14.78130314	     -8.31078642	      3.81732255	     -0.17542170	      0.95849274	     -0.04976391	      1.32492419	      7.99415667	    -19.38053944	    -10.50782734	     10.08341656	    -13.43382970	     26.96268407	    -23.35630453	     -6.45917223	     -9.22219625	     -9.21752720	     26.67106850	     -2.48122381	      9.63577431	    -22.91146392	      9.24483786	      0.02376715
      1.78500000	     14.87067589	     -8.24271300	      4.04901705	     -0.16933319	      0.95745400	     -0.04936418	      0.88117858	      8.18686381	    -20.33739909	     -8.13579866	      9.70290375	    -12.04178231	     27.38938628	    -23.74790365	     -6.55538542	     -9.22560974	     -9.38614732	     27.00808813	     -2.21445980	      9.63231107	    -22.90108284	      9.23621603	     -0.17538026
      1.79000000	     14.88511438	     -8.11717809	      4.23099296	     -0.16333980	      0.95627405	     -0.04886116	      0.58302042	      8.31664236	    -21.24662005	     -5.95422366	      9.34778120	    -10.59878633	     27.89849974	    -24.03804159	     -6.58130456	     -9.20737681	     -9.59967473	     27.33323558	     -1.96632317	      9.62376537	    -22.82921349	      9.14602263	     -0.35980731
      1.79500000	     14.81906937	     -7.94789547	      4.37187325	     -0.15742602	      0.95495670	     -0.04826371	      0.42987739	      8.39497675	    -22.08205493	     -3.95215378	      8.99347879	     -9.18336216	     28.37075257	    -24.21810764	     -6.55337367	     -9.18087211	     -9.86229940	     27.70401912	     -1.73094028	      9.63397299	    -22.68526275	      8.99194483	     -0.57132288
      1.80000000	     14.70842552	     -7.78326950	      4.42860242	     -0.15151005	      0.95356591	     -0.04752555	      0.37607106	      8.46686809	    -22.83931153	     -2.13919993	      8.73585940	     -7.63203486	     29.02961640	    -24.37121152	     -6.49741635	     -9.21094977	    -10.10896289	     27.98931679	     -1.56973082	      9.61621823	    -22.50525437	      8.81138363	     -0.64792186
      1.80500000	     14.54847875	     -7.58346034	      4.47783595	     -0.14569745	      0.95210841	     -0.04673070	      0.41666035	      8.49530676	    -23.50365627	     -0.47498648	      8.44318216	     -6.23735136	     29.60130524	    -24.43024151	     -6.41337111	     -9.20407021	    -10.43038201	     28.29923183	     -1.36816626	      9.63475560	    -22.28770327	      8.58471200	     -0.75309309
      1.81000000	     14.33045518	     -7.39304093	      4.53331580	     -0.13994942	      0.95055825	     -0.04587931	      0.54056922	      8.53074162	    -23.99701710	      1.07682483	      8.12808862	     -5.12770954	     29.88005795	    -24.38502276	     -6.35313053	     -9.17539007	    -10.82711245	     28.66164714	     -1.14767443	      9.69663725	    -22.01378988	      8.36508135	     -0.88454913
      1.81500000	     14.15106472	     -7.16228836	      4.52527479	     -0.13420975	      0.94908673	     -0.04497041	      0.67763170	      8.49443304	    -24.53228874	      2.39902900	      7.92410019	     -3.74536398	     30.27855361	    -24.41468820	     -6.22319498	     -9.20612489	    -11.17798662	     28.95734024	     -0.92844528	      9.76579122	    -21.79709564	      8.08405724	     -0.94022048
      1.82000000	     13.93351381	     -6.95271371	      4.52818792	     -0.12848188	      0.94758701	     -0.04405888	      0.86051863	      8.46990573	    -24.90859864	      3.61974044	      7.69487623	     -2.62933961	     30.62460401	    -24.37939487	     -6.12224342	     -9.18841588	    -11.57071559	     29.22428396	     -0.75527006	      9.85627349	    -21.53872246	      7.83149546	     -1.00338107
      1.82500000	     13.72135120	     -6.76458982	      4.53294580	     -0.12273091	      0.94610237	     -0.04312012	      1.04714267	      8.45614864	    -25.18774266	      4.71410953	      7.46909469	     -1.67318309	     30.89580344	    -24.34542269	     -6.05073824	     -9.19191022	    -11.97702763	     29.48424587	     -0.56815016	      9.97095435	    -21.28582581	      7.60032361	     -1.05782118
      1.83000000	     13.50091622	     -6.59303226	      4.55570375	     -0.11697654	      0.94465615	     -0.04219088	      1.25129108	      8.44103877	    -25.37729814	      5.67731223	      7.23944729	     -0.86955782	     31.08932996	    -24.28615810	     -6.00800526	     -9.14704724	    -12.41000135	     29.66827530	     -0.37637694	     10.08782116	    -21.02154480	      7.39305196	     -1.09428148
      1.83500000	     13.32703131	     -6.41127388	      4.58761094	     -0.11119519	      0.94329153	     -0.04132482	      1.43458702	      8.38755866	    -25.60556146	      6.45157012	      7.12477223	      0.01598204	     31.39139048	    -24.28217378	     -5.95633548	     -9.11371712	    -12.83519678	     29.92022840	     -0.18951151	     10.29526407	    -20.80830147	      7.18833232	     -1.17718307
      1.84000000	     13.16549850	     -6.26969551	      4.65763546	     -0.10534892	      0.94198864	     -0.04049692	      1.58885759	      8.36501342	    -25.72209139	      7.13885169	      6.96179686	      0.63250439	     31.61597787	    -24.28318061	     -5.96613647	     -9.03978254	    -13.27225598	     30.08640950	     -0.00367049	     10.50773077	    -20.59751677	      7.04063380	     -1.26337590
      1.84500000	     13.02864720	     -6.14929565	      4.74882068	     -0.09945652	      0.94077534	     -0.03972128	      1.72236604	      8.34427795	    -25.79401720	      7.68632504	      6.81154983	      1.12854047	     31.80219007	    -24.30942227	     -6.00670624	     -8.93396613	    -13.71116135	     30.20218843	      0.20018673	     10.72831115	    -20.40841730	      6.92826569	     -1.34252409
      1.85000000	     12.94807318	     -6.05261477	      4.84726555	     -0.09349123	      0.93967663	     -0.03900411	      1.82316537	      8.32192354	    -25.91877468	      8.04356905	      6.74402245	      1.72904691	     32.23435987	    -24.41121916	     -6.07350058	     -8.84752547	    -14.12487168	     30.30608232	      0.36918711	     11.27370776	    -20.27398162	      6.85326999	     -1.40094939
      1.85500000	     12.88938246	     -5.98465951	      4.99398281	     -0.08741202	      0.93866894	     -0.03834033	      1.86900480	      8.32360058	    -25.93596632	      8.34085519	      6.58390776	      1.98854130	     32.88000891	    -24.53691175	     -6.19621314	     -8.75080632	    -14.52840573	     30.26750239	      0.55749666	     12.29298018	    -20.14638784	      6.82852279	     -1.53907427
      1.86000000	     12.87681116	     -5.93590585	      5.18873122	     -0.08131786	      0.93776782	     -0.03779865	      1.86420407	      8.32471173	    -25.88034956	      8.51571656	      6.46677020	      2.03065696	     32.91867317	    -24.70163896	     -6.34907713	     -8.52902115	    -14.94181932	     30.31335140	      0.67204977	     12.40583288	    -20.06442870	      6.85070345	     -1.68059260
      1.86500000	     12.88494390	     -5.91973184	      5.40367697	     -0.07514502	      0.93695979	     -0.03730871	      1.85401563	      8.33719760	    -25.83425389	      8.53368557	      6.36410824	      2.06147125	     32.98305276	    -24.88341466	     -6.54998563	     -8.32663048	    -15.36562166	     30.34190685	      0.85578211	     12.57294700	    -19.99408075	      6.92097740	     -1.85463182
      1.87000000	     12.94393053	     -5.94783528	      5.65833285	     -0.06886474	      0.93626162	     -0.03689604	      1.79182964	      8.38715305	    -25.80495525	      8.43570117	      6.26978462	      1.99975655	     33.07595749	    -25.12133757	     -6.81755143	     -8.12445561	    -15.78211117	     30.32604965	      1.06391897	     12.81078885	    -19.96239377	      7.06106398	     -2.03433209
